<mxfile host="app.diagrams.net" modified="2024-04-25T15:56:58.438Z" agent="Mozilla/5.0 (Windows NT 10.0; Win64; x64) AppleWebKit/537.36 (KHTML, like Gecko) Chrome/124.0.0.0 Safari/537.36 Edg/124.0.0.0" etag="HKIH9l-vu5eo3y94MImW" version="24.3.0" type="github">
  <diagram id="C5RBs43oDa-KdzZeNtuy" name="Page-1">
    <mxGraphModel dx="1050" dy="611" grid="1" gridSize="10" guides="1" tooltips="1" connect="1" arrows="1" fold="1" page="1" pageScale="1" pageWidth="827" pageHeight="1169" math="0" shadow="0">
      <root>
        <mxCell id="WIyWlLk6GJQsqaUBKTNV-0" />
        <mxCell id="WIyWlLk6GJQsqaUBKTNV-1" parent="WIyWlLk6GJQsqaUBKTNV-0" />
        <mxCell id="i9RrcQ92r4vhjMqqGnyR-4" value="" style="edgeStyle=orthogonalEdgeStyle;rounded=0;orthogonalLoop=1;jettySize=auto;html=1;" edge="1" parent="WIyWlLk6GJQsqaUBKTNV-1" source="i9RrcQ92r4vhjMqqGnyR-0" target="i9RrcQ92r4vhjMqqGnyR-3">
          <mxGeometry relative="1" as="geometry" />
        </mxCell>
        <mxCell id="i9RrcQ92r4vhjMqqGnyR-0" value="加载Spring Security配置类" style="strokeWidth=2;html=1;shape=mxgraph.flowchart.terminator;whiteSpace=wrap;" vertex="1" parent="WIyWlLk6GJQsqaUBKTNV-1">
          <mxGeometry x="160" y="80" width="100" height="60" as="geometry" />
        </mxCell>
        <mxCell id="i9RrcQ92r4vhjMqqGnyR-6" value="" style="edgeStyle=orthogonalEdgeStyle;rounded=0;orthogonalLoop=1;jettySize=auto;html=1;" edge="1" parent="WIyWlLk6GJQsqaUBKTNV-1" source="i9RrcQ92r4vhjMqqGnyR-3" target="i9RrcQ92r4vhjMqqGnyR-5">
          <mxGeometry relative="1" as="geometry" />
        </mxCell>
        <mxCell id="i9RrcQ92r4vhjMqqGnyR-3" value="实例化认证管理器Bean" style="rounded=1;whiteSpace=wrap;html=1;strokeWidth=2;" vertex="1" parent="WIyWlLk6GJQsqaUBKTNV-1">
          <mxGeometry x="150" y="220" width="120" height="60" as="geometry" />
        </mxCell>
        <mxCell id="i9RrcQ92r4vhjMqqGnyR-8" value="" style="edgeStyle=orthogonalEdgeStyle;rounded=0;orthogonalLoop=1;jettySize=auto;html=1;" edge="1" parent="WIyWlLk6GJQsqaUBKTNV-1" source="i9RrcQ92r4vhjMqqGnyR-5" target="i9RrcQ92r4vhjMqqGnyR-7">
          <mxGeometry relative="1" as="geometry" />
        </mxCell>
        <mxCell id="i9RrcQ92r4vhjMqqGnyR-5" value="注册前置过滤器" style="rounded=1;whiteSpace=wrap;html=1;strokeWidth=2;" vertex="1" parent="WIyWlLk6GJQsqaUBKTNV-1">
          <mxGeometry x="150" y="360" width="120" height="60" as="geometry" />
        </mxCell>
        <mxCell id="i9RrcQ92r4vhjMqqGnyR-10" value="" style="edgeStyle=orthogonalEdgeStyle;rounded=0;orthogonalLoop=1;jettySize=auto;html=1;" edge="1" parent="WIyWlLk6GJQsqaUBKTNV-1" source="i9RrcQ92r4vhjMqqGnyR-7" target="i9RrcQ92r4vhjMqqGnyR-9">
          <mxGeometry relative="1" as="geometry" />
        </mxCell>
        <mxCell id="i9RrcQ92r4vhjMqqGnyR-7" value="接收HTTP请求" style="rounded=1;whiteSpace=wrap;html=1;strokeWidth=2;" vertex="1" parent="WIyWlLk6GJQsqaUBKTNV-1">
          <mxGeometry x="350" y="360" width="120" height="60" as="geometry" />
        </mxCell>
        <mxCell id="i9RrcQ92r4vhjMqqGnyR-12" value="" style="edgeStyle=orthogonalEdgeStyle;rounded=0;orthogonalLoop=1;jettySize=auto;html=1;" edge="1" parent="WIyWlLk6GJQsqaUBKTNV-1" source="i9RrcQ92r4vhjMqqGnyR-9" target="i9RrcQ92r4vhjMqqGnyR-11">
          <mxGeometry relative="1" as="geometry" />
        </mxCell>
        <mxCell id="i9RrcQ92r4vhjMqqGnyR-9" value="在过滤器中解析token" style="rounded=1;whiteSpace=wrap;html=1;strokeWidth=2;" vertex="1" parent="WIyWlLk6GJQsqaUBKTNV-1">
          <mxGeometry x="350" y="220" width="120" height="60" as="geometry" />
        </mxCell>
        <mxCell id="i9RrcQ92r4vhjMqqGnyR-14" value="" style="edgeStyle=orthogonalEdgeStyle;rounded=0;orthogonalLoop=1;jettySize=auto;html=1;" edge="1" parent="WIyWlLk6GJQsqaUBKTNV-1" source="i9RrcQ92r4vhjMqqGnyR-11" target="i9RrcQ92r4vhjMqqGnyR-13">
          <mxGeometry relative="1" as="geometry" />
        </mxCell>
        <mxCell id="i9RrcQ92r4vhjMqqGnyR-11" value="添加用户信息到&lt;div&gt;安全上下文&lt;/div&gt;" style="rounded=1;whiteSpace=wrap;html=1;strokeWidth=2;" vertex="1" parent="WIyWlLk6GJQsqaUBKTNV-1">
          <mxGeometry x="550" y="220" width="120" height="60" as="geometry" />
        </mxCell>
        <mxCell id="i9RrcQ92r4vhjMqqGnyR-16" value="" style="edgeStyle=orthogonalEdgeStyle;rounded=0;orthogonalLoop=1;jettySize=auto;html=1;" edge="1" parent="WIyWlLk6GJQsqaUBKTNV-1" source="i9RrcQ92r4vhjMqqGnyR-13" target="i9RrcQ92r4vhjMqqGnyR-15">
          <mxGeometry relative="1" as="geometry" />
        </mxCell>
        <mxCell id="i9RrcQ92r4vhjMqqGnyR-13" value="在Controller中&lt;div&gt;获取用户信息&lt;/div&gt;" style="rounded=1;whiteSpace=wrap;html=1;strokeWidth=2;" vertex="1" parent="WIyWlLk6GJQsqaUBKTNV-1">
          <mxGeometry x="550" y="360" width="120" height="60" as="geometry" />
        </mxCell>
        <mxCell id="i9RrcQ92r4vhjMqqGnyR-15" value="根据用户信息&lt;div&gt;执行后续逻辑&lt;/div&gt;" style="strokeWidth=2;html=1;shape=mxgraph.flowchart.terminator;whiteSpace=wrap;" vertex="1" parent="WIyWlLk6GJQsqaUBKTNV-1">
          <mxGeometry x="560" y="500" width="100" height="60" as="geometry" />
        </mxCell>
      </root>
    </mxGraphModel>
  </diagram>
</mxfile>
